<svg xmlns="http://www.w3.org/2000/svg" width="25.999" height="32.1" viewBox="0 0 25.999 32.1">
  <g id="Apple" transform="translate(-1.976 1.1)">
    <g id="Stroke-82">
      <path id="Path_1" data-name="Path 1" d="M10.7,31h0C8.1,31,6.3,28.7,5,26.7,1.7,21.6,1,15.2,3.4,11.5a8.255,8.255,0,0,1,6.7-4,10.093,10.093,0,0,1,3.3.7,5.374,5.374,0,0,0,2.1.5,4.463,4.463,0,0,0,1.8-.5,10.263,10.263,0,0,1,3.5-.7,8.087,8.087,0,0,1,6.1,3.2.778.778,0,0,1,.2.8,1.157,1.157,0,0,1-.5.7A4.863,4.863,0,0,0,24,17a4.981,4.981,0,0,0,3.3,4.5.9.9,0,0,1,.6.6,1.1,1.1,0,0,1,0,.8A19.541,19.541,0,0,1,26,26.4c-1.5,2.2-3.3,4.5-5.7,4.5a4.95,4.95,0,0,1-2.4-.6,4.647,4.647,0,0,0-2.4-.6,5.283,5.283,0,0,0-2.4.6A4.028,4.028,0,0,1,10.7,31Z" fill="#eedcaf"/>
    </g>
    <g id="Stroke-83">
      <path id="Path_2" data-name="Path 2" d="M14.7,7.7h-.2a1.077,1.077,0,0,1-1-.8,6.824,6.824,0,0,1,1.6-5.3,7.8,7.8,0,0,1,5-2.7,1.072,1.072,0,0,1,1.1.9,6.718,6.718,0,0,1-1.6,5.3h0A6.215,6.215,0,0,1,14.7,7.7Z" fill="#eedcaf"/>
    </g>
  </g>
</svg>
